<?xml version="1.0" encoding="UTF-8"?>
<svg xmlns="http://www.w3.org/2000/svg" viewBox="0 0 1920 1080" width="1920" height="1080" role="img">

  <defs>
    <linearGradient id="bg" x1="0" y1="0" x2="1" y2="1">
      <stop offset="0%" stop-color="#0a0818"/>
      <stop offset="55%" stop-color="#0d0b21"/>
      <stop offset="100%" stop-color="#14081c"/>
    </linearGradient>
    <radialGradient id="glowC" cx="16%" cy="18%" r="42%">
      <stop offset="0%" stop-color="#00f5f5" stop-opacity="0.22"/>
      <stop offset="100%" stop-color="#00f5f5" stop-opacity="0"/>
    </radialGradient>
    <radialGradient id="glowM" cx="86%" cy="16%" r="40%">
      <stop offset="0%" stop-color="#ff51fa" stop-opacity="0.20"/>
      <stop offset="100%" stop-color="#ff51fa" stop-opacity="0"/>
    </radialGradient>
    <radialGradient id="glowV" cx="50%" cy="90%" r="48%">
      <stop offset="0%" stop-color="#a68cff" stop-opacity="0.16"/>
      <stop offset="100%" stop-color="#a68cff" stop-opacity="0"/>
    </radialGradient>
    <linearGradient id="ink" x1="0" y1="0" x2="1" y2="0">
      <stop offset="0%" stop-color="#00f5f5"/>
      <stop offset="50%" stop-color="#a68cff"/>
      <stop offset="100%" stop-color="#ff51fa"/>
    </linearGradient>
    <linearGradient id="rail" x1="0" y1="0" x2="1" y2="0">
      <stop offset="0%" stop-color="#00f5f5" stop-opacity="0.18"/>
      <stop offset="50%" stop-color="#a68cff" stop-opacity="0.55"/>
      <stop offset="100%" stop-color="#ff51fa" stop-opacity="0.18"/>
    </linearGradient>
    <linearGradient id="gStroke" x1="0" y1="0" x2="1" y2="1">
      <stop offset="0%" stop-color="#ffffff" stop-opacity="0.22"/>
      <stop offset="100%" stop-color="#ffffff" stop-opacity="0.06"/>
    </linearGradient>
    <linearGradient id="spine" x1="0" y1="0" x2="0" y2="1">
      <stop offset="0%" stop-color="#a68cff" stop-opacity="0"/>
      <stop offset="20%" stop-color="#a68cff" stop-opacity="0.75"/>
      <stop offset="80%" stop-color="#a68cff" stop-opacity="0.75"/>
      <stop offset="100%" stop-color="#a68cff" stop-opacity="0"/>
    </linearGradient>
  </defs>
  <rect width="1920" height="1080" fill="url(#bg)"/>
  <rect width="1920" height="1080" fill="url(#glowC)"/>
  <rect width="1920" height="1080" fill="url(#glowM)"/>
  <rect width="1920" height="1080" fill="url(#glowV)"/>


  <g font-family="Avenir Next, Segoe UI, Helvetica Neue, sans-serif">
    <text x="80" y="70" fill="#00f5f5" font-size="13" letter-spacing="6" font-weight="600">QUERY TIME</text>
    <text x="80" y="118" fill="url(#ink)" font-size="38" font-weight="700">compare() sequence</text>
    <text x="80" y="156" fill="#8b86a8" font-size="16">One embedding. Two retrievals. Two grounded completions. One cosine.</text>

    <g font-size="13" font-weight="600">
      <text x="280" y="220" text-anchor="middle" fill="#c9c4e4">App</text>
      <text x="560" y="220" text-anchor="middle" fill="#a68cff">MiniLM</text>
      <text x="860" y="220" text-anchor="middle" fill="#00f5f5">kb_grokipedia</text>
      <text x="1160" y="220" text-anchor="middle" fill="#ff51fa">kb_wikipedia</text>
      <text x="1480" y="220" text-anchor="middle" fill="#e7e2ff">Groq 70B</text>
      <text x="1760" y="220" text-anchor="middle" fill="#c9c4e4">Metric</text>
    </g>
    <g stroke="#2a2744" stroke-width="1">
      <line x1="280" y1="240" x2="280" y2="960"/>
      <line x1="560" y1="240" x2="560" y2="960"/>
      <line x1="860" y1="240" x2="860" y2="960"/>
      <line x1="1160" y1="240" x2="1160" y2="960"/>
      <line x1="1480" y1="240" x2="1480" y2="960"/>
      <line x1="1760" y1="240" x2="1760" y2="960"/>
    </g>

    <text x="48" y="300" fill="#5a5674" font-size="12">01</text>
    <line x1="280" y1="292" x2="560" y2="292" stroke="#a68cff" stroke-width="2"/>
    <polygon points="560,292 548,287 548,297" fill="#a68cff"/>
    <rect x="300" y="262" width="220" height="28" rx="8" fill="#1b1733"/>
    <text x="410" y="281" text-anchor="middle" fill="#d8d2ff" font-size="13">embed_query(q)</text>
    <rect x="500" y="318" width="200" height="26" rx="8" fill="#1b1733"/>
    <text x="600" y="336" text-anchor="middle" fill="#a68cff" font-size="12">qv  &#183;  384-d  reused</text>

    <text x="48" y="400" fill="#5a5674" font-size="12">02</text>
    <line x1="560" y1="392" x2="860" y2="392" stroke="#00f5f5" stroke-width="2"/>
    <polygon points="860,392 848,387 848,397" fill="#00f5f5"/>
    <rect x="590" y="362" width="230" height="28" rx="8" fill="#102226"/>
    <text x="705" y="381" text-anchor="middle" fill="#7ef6f6" font-size="13">query(qv, k=5)</text>
    <line x1="860" y1="392" x2="280" y2="452" stroke="#00f5f5" stroke-width="1.4" stroke-opacity="0.7"/>
    <polygon points="280,452 290,446 292,456" fill="#00f5f5"/>
    <text x="520" y="430" fill="#6ec8c8" font-size="12">hits_g + similarities</text>

    <text x="48" y="520" fill="#5a5674" font-size="12">03</text>
    <line x1="560" y1="512" x2="1160" y2="512" stroke="#ff51fa" stroke-width="2"/>
    <polygon points="1160,512 1148,507 1148,517" fill="#ff51fa"/>
    <rect x="720" y="482" width="280" height="28" rx="8" fill="#26101f"/>
    <text x="860" y="501" text-anchor="middle" fill="#ffb0fb" font-size="13">query(same qv, k=5)</text>
    <line x1="1160" y1="512" x2="280" y2="572" stroke="#ff51fa" stroke-width="1.4" stroke-opacity="0.7"/>
    <polygon points="280,572 290,566 292,576" fill="#ff51fa"/>
    <text x="620" y="550" fill="#d48ad0" font-size="12">hits_w + similarities</text>

    <text x="48" y="640" fill="#5a5674" font-size="12">04</text>
    <line x1="280" y1="632" x2="1480" y2="632" stroke="#00f5f5" stroke-width="2"/>
    <polygon points="1480,632 1468,627 1468,637" fill="#00f5f5"/>
    <rect x="700" y="602" width="420" height="28" rx="8" fill="#102226"/>
    <text x="910" y="621" text-anchor="middle" fill="#7ef6f6" font-size="13">system + context(hits_g) + question</text>
    <line x1="1480" y1="632" x2="280" y2="688" stroke="#00f5f5" stroke-width="1.4" stroke-dasharray="4 4" stroke-opacity="0.75"/>
    <text x="880" y="672" fill="#6ec8c8" font-size="12">answer_g  &#183;  citations [n]</text>

    <text x="48" y="760" fill="#5a5674" font-size="12">05</text>
    <line x1="280" y1="752" x2="1480" y2="752" stroke="#ff51fa" stroke-width="2"/>
    <polygon points="1480,752 1468,747 1468,757" fill="#ff51fa"/>
    <rect x="700" y="722" width="420" height="28" rx="8" fill="#26101f"/>
    <text x="910" y="741" text-anchor="middle" fill="#ffb0fb" font-size="13">same prompt  &#183;  context(hits_w)</text>
    <line x1="1480" y1="752" x2="280" y2="808" stroke="#ff51fa" stroke-width="1.4" stroke-dasharray="4 4" stroke-opacity="0.75"/>
    <text x="880" y="792" fill="#d48ad0" font-size="12">answer_w  &#183;  citations [n]  &#183;  rate-limit pause</text>

    <text x="48" y="880" fill="#5a5674" font-size="12">06</text>
    <line x1="280" y1="872" x2="560" y2="872" stroke="#a68cff" stroke-width="2"/>
    <polygon points="560,872 548,867 548,877" fill="#a68cff"/>
    <rect x="300" y="842" width="240" height="28" rx="8" fill="#1b1733"/>
    <text x="420" y="861" text-anchor="middle" fill="#d8d2ff" font-size="13">embed(answer_g, answer_w)</text>
    <line x1="560" y1="872" x2="1760" y2="872" stroke="#a68cff" stroke-width="2"/>
    <polygon points="1760,872 1748,867 1748,877" fill="#a68cff"/>
    <rect x="1500" y="842" width="220" height="28" rx="8" fill="#1b1733"/>
    <text x="1610" y="861" text-anchor="middle" fill="#d8d2ff" font-size="13">cosine + topic overlap</text>

    <rect x="80" y="980" width="1760" height="54" rx="12" fill="#191631" fill-opacity="0.8"/>
    <text x="960" y="1014" text-anchor="middle" fill="#8b86a8" font-size="15">The query vector is computed once and passed into both retrieve() calls. The A/B does not re-embed the question.</text>
  </g>

</svg>
